<svg xmlns="http://www.w3.org/2000/svg" viewBox="0 0 111.1 33.87"><defs><style>.cls-1{font-size:27.44px;fill:#003764;}.cls-1,.cls-2{font-family:Arial-BoldMT, Arial;font-weight:700;}.cls-2{font-size:24.51px;fill:#009549;}.cls-3{fill:#54565a;}.cls-4{fill:none;stroke:#54565a;stroke-miterlimit:10;}</style></defs><g id="Camada_2" data-name="Camada 2"><g id="Camada_1-2" data-name="Camada 1"><text class="cls-1" transform="translate(39.6 23.54)">gmp</text><text class="cls-2" transform="translate(96.79 22.29)">+</text><polygon class="cls-3" points="27.81 1.54 27.81 3.83 21.46 3.83 21.46 6.12 15.12 6.12 15.12 16.36 16.34 16.81 16.34 7.35 21.46 7.35 21.46 8.62 19.01 8.62 19.01 9.42 21.46 9.42 21.46 10.78 19.01 10.78 19.01 11.58 21.46 11.58 21.46 19.64 22.69 20.55 22.69 6.12 22.69 5.06 27.81 5.06 27.81 6.47 25.57 6.47 25.57 7.27 27.81 7.27 27.81 8.62 25.57 8.62 25.57 9.42 27.81 9.42 27.81 10.78 25.57 10.78 25.57 11.58 27.81 11.58 27.81 18.45 29.03 17.82 29.03 3.83 29.03 2.77 34.16 2.77 34.16 4.31 32.12 4.31 32.12 5.11 34.16 5.11 34.16 6.47 32.12 6.47 32.12 7.27 34.16 7.27 34.16 8.62 32.12 8.62 32.12 9.42 34.16 9.42 34.16 15.74 35.38 15.74 35.38 1.54 27.81 1.54"/><path class="cls-4" d="M22.89,21.06l10.86-5.25a2.66,2.66,0,0,1,3.36.82A2.91,2.91,0,0,1,36.79,20L26.23,26.39a75.11,75.11,0,0,1-9.51,2.71A8.4,8.4,0,0,1,13.54,29L2.09,25.38A2.79,2.79,0,0,1,.5,23.1V19.94A5.32,5.32,0,0,1,4.82,15.3L11,15.12a6.32,6.32,0,0,1,2.76.39l7.4,3.77A3.67,3.67,0,0,1,22.89,21.06Z"/><path class="cls-4" d="M11.2,20.56l8.13,3.72a3.47,3.47,0,0,0,2.92-.61,3.57,3.57,0,0,0,.65-1.83v-.78"/></g></g></svg>